HIERARCHY
ROOT Hips
{
	OFFSET 0.00000 0.00000 0.00000
	CHANNELS 6 Xposition Yposition Zposition Zrotation Yrotation Xrotation 
	JOINT LHipJoint
	{
		OFFSET 0 0 0
		CHANNELS 3 Zrotation Yrotation Xrotation
		JOINT LeftHip
		{
			OFFSET 1.46561 -1.72757 0.83774
			CHANNELS 3 Zrotation Yrotation Xrotation
			JOINT LeftKnee
			{
				OFFSET 2.48915 -6.83890 0.00000
				CHANNELS 3 Zrotation Yrotation Xrotation
				JOINT LeftAnkle
				{
					OFFSET 2.60555 -7.15868 0.00000
					CHANNELS 3 Zrotation Yrotation Xrotation
					JOINT LeftToe
					{
						OFFSET 0.19248 -0.52884 2.26738
						CHANNELS 3 Zrotation Yrotation Xrotation
						End Site
						{
							OFFSET 0.00000 -0.00000 1.17015
						}
					}
				}
			}
		}
	}
	JOINT RHipJoint
	{
		OFFSET 0 0 0
		CHANNELS 3 Zrotation Yrotation Xrotation
		JOINT RightHip
		{
			OFFSET -1.46918 -1.72757 0.83774
			CHANNELS 3 Zrotation Yrotation Xrotation
			JOINT RightKnee
			{
				OFFSET -2.49034 -6.84216 0.00000
				CHANNELS 3 Zrotation Yrotation Xrotation
				JOINT RightAnkle
				{
					OFFSET -2.65971 -7.30750 0.00000
					CHANNELS 3 Zrotation Yrotation Xrotation
					JOINT RightToe
					{
						OFFSET -0.19227 -0.52827 2.30785
						CHANNELS 3 Zrotation Yrotation Xrotation
						End Site
						{
							OFFSET -0.00000 -0.00000 1.18972
						}
					}
				}
			}
		}
	}
	JOINT lowerback
	{
		OFFSET 0 0 0
		CHANNELS 3 Zrotation Yrotation Xrotation
		JOINT Chest
		{
			OFFSET 0.02432 2.19909 -0.28000
			CHANNELS 3 Zrotation Yrotation Xrotation
			JOINT Chest2
			{
				OFFSET 0.03714 2.21816 -0.15261
				CHANNELS 3 Zrotation Yrotation Xrotation
				JOINT lowerneck
				{
					OFFSET 0 0 0
					CHANNELS 3 Zrotation Yrotation Xrotation
					JOINT Neck
					{
						OFFSET -0.01896 1.56165 0.21681
						CHANNELS 3 Zrotation Yrotation Xrotation
						JOINT Head
						{
							OFFSET 0.02744 1.56009 0.06764
							CHANNELS 3 Zrotation Yrotation Xrotation
							End Site
							{
								OFFSET 0.01212 1.60574 0.00298
							}
						}
					}
				}
				JOINT LeftCollar
				{
					OFFSET 0 0 0
					CHANNELS 3 Zrotation Yrotation Xrotation
					JOINT LeftShoulder
					{
						OFFSET 3.05595 1.48048 -0.60794
CHANNELS 3 Zrotation Xrotation Yrotation
						JOINT LeftElbow
						{
OFFSET 0 -5.206070 -0.000000
CHANNELS 3 Zrotation Xrotation Yrotation
							JOINT LeftWrist
							{
OFFSET 0 -3.399610 0.000000
CHANNELS 3 Zrotation Xrotation Yrotation
								JOINT lhand
								{
									OFFSET 0 0 0
CHANNELS 3 Zrotation Xrotation Yrotation
									JOINT LFingers
									{
OFFSET 0 -0.519690 0.000000
CHANNELS 3 Zrotation Xrotation Yrotation
										End Site
										{
OFFSET 0 -0.418990 0.000000
										}
									}
								}
								JOINT LThumb
								{
OFFSET 0 0.000000 0.000000
CHANNELS 3 Zrotation Xrotation Yrotation
									End Site
									{
OFFSET 0 -0.425390 0.425390
									}
								}
							}
						}
					}
				}
				JOINT RightCollar
				{
					OFFSET 0 0 0
					CHANNELS 3 Zrotation Yrotation Xrotation
					JOINT RightShoulder
					{
						OFFSET -2.99052 1.57608 -0.69102
CHANNELS 3 Zrotation Xrotation Yrotation
						JOINT RightElbow
						{
OFFSET 0 -5.322140 0.000000
CHANNELS 3 Zrotation Xrotation Yrotation
							JOINT RightWrist
							{
OFFSET 0 -3.512080 0.000000
CHANNELS 3 Zrotation Xrotation Yrotation
								JOINT rhand
								{
									OFFSET 0 0 0
CHANNELS 3 Zrotation Xrotation Yrotation
									JOINT RFingers
									{
OFFSET 0 -0.586680 0.000000
CHANNELS 3 Zrotation Xrotation Yrotation
										End Site
										{
OFFSET 0 -0.473000 0.000000
										}
									}
								}
								JOINT RThumb
								{
OFFSET 0 0.000000 0.000000
CHANNELS 3 Zrotation Xrotation Yrotation
									End Site
									{
OFFSET 0 -0.480220 0.480220
									}
								}
							}
						}
					}
				}
			}
		}
	}
}
MOTION
Frames: 12
Frame Time: 0.008333333333333333
-0.271800 17.610200 -14.518900 -0.638800 4.960300 10.480500 0.000000 0.000000 0.000000 -14.642900 -4.961200 -23.958600 2.274200 9.415300 27.103400 0.247000 -1.457900 -8.989500 0.021700 -0.950800 -2.613400 0.000000 0.000000 0.000000 18.425200 2.068200 -20.379900 -1.488300 -7.707300 21.828500 -0.484400 3.545300 -12.413500 -0.293800 -3.485600 9.633700 1.689000 -0.616400 3.888200 2.520300 -0.858900 5.676200 1.659800 -0.417000 3.688500 -3.013200 -0.755800 -12.254300 1.566200 -0.795700 33.553600 1.034700 -0.501100 13.334000 -0.000000 0.000000 0.000000 -0.519600 -9.866200 -38.841400 11.144900 -18.510100 1.821700 25.046600 -19.395300 1.879900 0.000000 0.000000 0.000000 -7.125000 0.000000 0.000000 -1.184500 27.904200 -0.492600 -0.000000 0.000000 0.000000 -5.664600 -7.552200 16.185400 -14.892200 -23.995800 -3.182000 -24.257000 33.869200 25.907000 0.000000 0.000000 0.000000 7.125000 0.000000 -0.000000 6.276500 57.916800 -1.989300
-0.252199 17.607010 -14.504989 -0.659664 4.723705 10.535980 0.000000 0.000000 0.000000 -14.665051 -4.735167 -23.748790 2.215522 9.301258 26.742235 0.257190 -1.648020 -9.144731 0.035342 -1.211883 -3.332103 0.000000 0.000000 0.000000 18.354238 2.230774 -20.420562 -1.502895 -7.743195 21.936714 -0.491870 3.637981 -12.505312 -0.288510 -3.453942 9.545381 1.691528 -0.548342 3.831988 2.449073 -0.767490 5.626986 1.583562 -0.369850 3.665720 -3.013486 -0.696500 -12.097630 1.584635 -0.719116 33.334458 1.051022 -0.464867 13.202628 0.000000 0.000000 0.000000 -0.287063 -9.770385 -38.615464 11.099900 -18.441196 1.807412 24.668555 -19.002659 1.855630 0.000000 0.000000 0.000000 -7.125000 0.000000 0.000000 -1.476614 27.937009 -0.612966 0.000000 0.000000 0.000000 -5.663155 -7.535304 16.211345 -14.812891 -23.884849 -3.149847 -24.107896 33.940834 25.799557 0.000000 0.000000 0.000000 7.125000 0.000000 0.000000 6.393618 57.771364 -2.004180
-0.232667 17.598505 -14.496168 -0.715604 4.478830 10.605381 0.000000 0.000000 0.000000 -14.647296 -4.482492 -23.675690 2.175658 9.222620 26.494348 0.270791 -1.878928 -9.354454 0.051433 -1.462269 -4.021799 0.000000 0.000000 0.000000 18.302488 2.488039 -20.604040 -1.549395 -7.856478 22.279134 -0.504194 3.718498 -12.659236 -0.275045 -3.372835 9.318596 1.699454 -0.498925 3.760737 2.390133 -0.702753 5.622282 1.517160 -0.335999 3.698734 -3.011738 -0.631398 -12.130473 1.586562 -0.624341 33.201246 1.063703 -0.422760 13.149500 0.000000 0.000000 0.000000 -0.040999 -9.865266 -38.424179 10.973203 -18.247188 1.767591 24.636066 -18.643175 2.090389 0.000000 0.000000 0.000000 -7.125000 0.000000 0.000000 -1.501121 27.679215 -0.632099 0.000000 0.000000 0.000000 -5.653686 -7.627659 16.276977 -14.762449 -23.814052 -3.129382 -23.856656 34.039388 25.763533 0.000000 0.000000 0.000000 7.125000 0.000000 0.000000 6.652671 57.677711 -2.070808
-0.211793 17.580935 -14.490954 -0.809795 4.180331 10.597649 0.000000 0.000000 0.000000 -14.612960 -4.183204 -23.553543 2.140164 9.152060 26.272251 0.289114 -2.047892 -9.650582 0.066868 -1.666165 -4.584062 0.000000 0.000000 0.000000 18.278158 2.831009 -20.740705 -1.604190 -7.987473 22.676221 -0.517351 3.708238 -12.827392 -0.247411 -3.200425 8.837282 1.713356 -0.436997 3.811442 2.342919 -0.617487 5.617193 1.460439 -0.292214 3.662700 -2.984025 -0.547088 -12.101599 1.554228 -0.499131 33.076531 1.062825 -0.368772 13.085793 0.000000 0.000000 0.000000 0.173487 -9.906636 -38.135202 10.892340 -18.123101 1.742347 24.512888 -17.903683 1.763957 0.000000 0.000000 0.000000 -7.125000 0.000000 0.000000 -1.597383 28.039952 -0.659136 0.000000 0.000000 0.000000 -5.652224 -7.757744 16.294490 -14.673460 -23.689255 -3.093588 -23.652807 34.263340 25.711968 0.000000 0.000000 0.000000 7.125000 0.000000 0.000000 6.852451 57.578742 -2.117030
-0.190951 17.563058 -14.485810 -0.888766 3.885759 10.590677 0.000000 0.000000 0.000000 -14.601030 -3.893116 -23.459044 2.115227 9.102130 26.115303 0.311240 -2.203175 -10.002269 0.084317 -1.870998 -5.149360 0.000000 0.000000 0.000000 18.226747 3.193934 -20.941122 -1.679466 -8.163228 23.211335 -0.535435 3.722773 -13.054542 -0.226927 -3.065532 8.461253 1.713630 -0.374414 3.855094 2.291469 -0.532047 5.619664 1.406824 -0.248666 3.638918 -2.964050 -0.472491 -12.078662 1.531204 -0.389138 32.949907 1.064727 -0.321017 13.023378 0.000000 0.000000 0.000000 0.394338 -9.974301 -37.876345 10.795189 -17.973644 1.712207 24.419241 -17.317835 1.632245 0.000000 0.000000 0.000000 -7.125000 0.000000 0.000000 -1.670660 28.185843 -0.683671 0.000000 0.000000 0.000000 -5.653576 -7.898269 16.309397 -14.593372 -23.576545 -3.061462 -23.396469 34.433227 25.655811 0.000000 0.000000 0.000000 7.125000 0.000000 0.000000 7.106582 57.463890 -2.176331
-0.169608 17.540507 -14.482613 -0.975841 3.560925 10.550030 0.000000 0.000000 0.000000 -14.603741 -3.572384 -23.370886 2.099393 9.070079 26.014785 0.338315 -2.296600 -10.429340 0.100542 -2.043809 -5.626698 0.000000 0.000000 0.000000 18.171717 3.609863 -21.166053 -1.772795 -8.375121 23.859708 -0.556140 3.717237 -13.311189 -0.204373 -2.909532 8.027130 1.701384 -0.306209 3.941645 2.243726 -0.438381 5.638638 1.364177 -0.201618 3.608481 -2.936661 -0.395100 -12.062689 1.495730 -0.273007 32.835333 1.061354 -0.271297 12.967686 0.000000 0.000000 0.000000 0.606481 -10.072053 -37.601726 10.696247 -17.821154 1.681775 24.397393 -16.756061 1.528051 0.000000 0.000000 0.000000 -7.125000 0.000000 0.000000 -1.688363 28.300492 -0.686429 0.000000 0.000000 0.000000 -5.658516 -8.082609 16.300267 -14.510578 -23.459835 -3.028422 -23.115051 34.620669 25.592139 0.000000 0.000000 0.000000 7.125000 0.000000 0.000000 7.383517 57.336077 -2.238923
-0.147904 17.513802 -14.480979 -1.068288 3.207652 10.474707 0.000000 0.000000 0.000000 -14.629432 -3.221311 -23.278247 2.090284 9.051607 25.957050 0.369855 -2.295096 -10.921017 0.115522 -2.190434 -6.032280 0.000000 0.000000 0.000000 18.115851 4.056186 -21.407575 -1.881474 -8.613754 24.594969 -0.578293 3.696648 -13.582131 -0.178909 -2.723134 7.508967 1.673883 -0.233004 4.065370 2.199828 -0.337816 5.676846 1.333992 -0.151843 3.577432 -2.901712 -0.314495 -12.048234 1.447428 -0.150164 32.728633 1.052676 -0.219390 12.915705 0.000000 0.000000 0.000000 0.808276 -10.196004 -37.301820 10.599159 -17.671298 1.652180 24.446048 -16.232093 1.468107 0.000000 0.000000 0.000000 -7.125000 0.000000 0.000000 -1.651126 28.365759 -0.668692 0.000000 0.000000 0.000000 -5.665488 -8.309176 16.263526 -14.429423 -23.345217 -2.996201 -22.837590 34.828257 25.521759 0.000000 0.000000 0.000000 7.125000 0.000000 0.000000 7.652127 57.202584 -2.296317
-0.126054 17.483740 -14.480600 -1.165636 2.835914 10.368703 0.000000 0.000000 0.000000 -14.679141 -2.849479 -23.185873 2.088055 9.047183 25.943103 0.404703 -2.170929 -11.461088 0.131758 -2.338804 -6.443099 0.000000 0.000000 0.000000 18.064430 4.510256 -21.661186 -2.002873 -8.871189 25.393876 -0.601243 3.669879 -13.859032 -0.151731 -2.508640 6.913686 1.630738 -0.159390 4.215285 2.160566 -0.237012 5.736635 1.317158 -0.102575 3.554448 -2.856793 -0.228844 -12.041337 1.385872 -0.018389 32.632918 1.038494 -0.164104 12.870098 0.000000 0.000000 0.000000 1.000849 -10.349287 -36.971279 10.505356 -17.526127 1.623842 24.573066 -15.771237 1.491768 0.000000 0.000000 0.000000 -7.125000 0.000000 0.000000 -1.552450 28.338223 -0.629687 0.000000 0.000000 0.000000 -5.669974 -8.575864 16.200474 -14.357034 -23.242840 -2.967576 -22.593962 35.063490 25.457399 0.000000 0.000000 0.000000 7.125000 0.000000 0.000000 7.885869 57.083226 -2.344344
-0.103956 17.451987 -14.480848 -1.267077 2.455727 10.232768 0.000000 0.000000 0.000000 -14.749442 -2.477076 -23.083242 2.091561 9.054304 25.965488 0.440429 -1.903609 -12.021204 0.152147 -2.512451 -6.924119 0.000000 0.000000 0.000000 18.023384 4.942515 -21.903178 -2.129888 -9.131008 26.206525 -0.623892 3.642016 -14.127925 -0.123785 -2.266741 6.243499 1.576056 -0.089347 4.380926 2.124951 -0.141533 5.820041 1.310457 -0.056450 3.547447 -2.799985 -0.137113 -12.046693 1.313424 0.122615 32.556674 1.019595 -0.104871 12.835369 0.000000 0.000000 0.000000 1.182840 -10.529857 -36.594248 10.413986 -17.384493 1.596447 24.755960 -15.334359 1.567783 0.000000 0.000000 0.000000 -7.125000 0.000000 0.000000 -1.410251 28.252302 -0.574810 0.000000 0.000000 0.000000 -5.664672 -8.873710 16.108293 -14.300899 -23.163204 -2.945398 -22.423444 35.332260 25.406449 0.000000 0.000000 0.000000 7.125000 0.000000 0.000000 8.046373 56.993879 -2.375208
-0.081962 17.420637 -14.481645 -1.367306 2.092893 10.080269 0.000000 0.000000 0.000000 -14.831525 -2.147287 -22.975222 2.100591 9.072568 26.022553 0.472829 -1.502803 -12.556138 0.178789 -2.722905 -7.508119 0.000000 0.000000 0.000000 17.993366 5.330086 -22.119990 -2.254227 -9.376435 26.980156 -0.645099 3.602767 -14.377323 -0.096577 -2.003310 5.514854 1.510562 -0.031929 4.550659 2.092392 -0.063741 5.918578 1.312960 -0.019683 3.554266 -2.735086 -0.040903 -12.060296 1.237616 0.269076 32.512530 0.998987 -0.042960 12.816147 0.000000 0.000000 0.000000 1.355843 -10.730771 -36.167686 10.321270 -17.240467 1.568818 24.971938 -14.914453 1.689419 0.000000 0.000000 0.000000 -7.125000 0.000000 0.000000 -1.242509 28.115473 -0.510466 0.000000 0.000000 0.000000 -5.643278 -9.189201 15.990888 -14.264667 -23.111830 -2.931208 -22.338224 35.621230 25.375332 0.000000 0.000000 0.000000 7.125000 0.000000 0.000000 8.123921 56.943458 -2.388429
-0.060230 17.392346 -14.482960 -1.457014 1.771935 9.919559 0.000000 0.000000 0.000000 -14.915377 -1.905495 -22.862959 2.115766 9.103046 26.118318 0.498001 -1.012505 -13.017897 0.211473 -2.960612 -8.169092 0.000000 0.000000 0.000000 17.969169 5.656086 -22.291242 -2.367196 -9.592264 27.666144 -0.663801 3.535173 -14.597951 -0.071620 -1.725835 4.748527 1.433673 0.006185 4.712450 2.059948 -0.012436 6.030762 1.322357 0.003484 3.580259 -2.667216 0.057513 -12.079110 1.170794 0.414812 32.507825 0.981769 0.019767 12.814815 0.000000 0.000000 0.000000 1.521929 -10.955565 -35.697623 10.225312 -17.091178 1.540536 25.187155 -14.503826 1.816729 0.000000 0.000000 0.000000 -7.125000 0.000000 0.000000 -1.075970 27.971747 -0.445604 0.000000 0.000000 0.000000 -5.594935 -9.511625 15.837852 -14.254205 -23.096935 -2.927119 -22.353812 35.925953 25.362519 0.000000 0.000000 0.000000 7.125000 0.000000 0.000000 8.101520 56.933539 -2.379797
-0.039278 17.369314 -14.484849 -1.526409 1.509513 9.762135 0.000000 0.000000 0.000000 -14.989100 -1.790699 -22.751741 2.137342 9.146571 26.254769 0.512756 -0.506427 -13.362916 0.244242 -3.179746 -8.779687 0.000000 0.000000 0.000000 17.941118 5.927719 -22.405536 -2.462501 -9.769315 28.233022 -0.679235 3.418964 -14.785049 -0.050932 -1.454836 4.001198 1.338509 0.022203 4.860036 2.026358 0.008309 6.149210 1.341150 0.010649 3.621066 -2.598384 0.155200 -12.106111 1.115419 0.555960 32.564072 0.968722 0.081410 12.841179 0.000000 0.000000 0.000000 1.675904 -11.202251 -35.173695 10.120486 -16.927836 1.509843 25.428730 -14.109828 1.971481 0.000000 0.000000 0.000000 -7.125000 0.000000 0.000000 -0.889699 27.796549 -0.372091 0.000000 0.000000 0.000000 -5.512883 -9.835125 15.641276 -14.266217 -23.114027 -2.931813 -22.447897 36.223513 25.377687 0.000000 0.000000 0.000000 7.125000 0.000000 0.000000 8.007485 56.969431 -2.358863
